<svg width="327" height="60" viewBox="0 0 327 60" fill="none" xmlns="http://www.w3.org/2000/svg">
<path d="M43.3334 16.6667H16.6667V43.3334H43.3334V16.6667Z" fill="#3894A3"/>
<path fill-rule="evenodd" clip-rule="evenodd" d="M27.5 6.66667V2.5C27.5 1.83696 27.7634 1.20107 28.2322 0.732233C28.7011 0.263392 29.337 0 30 0C30.663 0 31.2989 0.263392 31.7678 0.732233C32.2366 1.20107 32.5 1.83696 32.5 2.5V6.66667H37.5V2.5C37.5 1.83696 37.7634 1.20107 38.2322 0.732233C38.7011 0.263392 39.337 0 40 0C40.663 0 41.2989 0.263392 41.7678 0.732233C42.2366 1.20107 42.5 1.83696 42.5 2.5V6.66667H44.1667C46.5978 6.66667 48.9294 7.63244 50.6485 9.35152C52.3676 11.0706 53.3333 13.4022 53.3333 15.8333V17.5H57.5C58.163 17.5 58.7989 17.7634 59.2678 18.2322C59.7366 18.7011 60 19.337 60 20C60 20.663 59.7366 21.2989 59.2678 21.7678C58.7989 22.2366 58.163 22.5 57.5 22.5H53.3333V27.5H57.5C58.163 27.5 58.7989 27.7634 59.2678 28.2322C59.7366 28.7011 60 29.337 60 30C60 30.663 59.7366 31.2989 59.2678 31.7678C58.7989 32.2366 58.163 32.5 57.5 32.5H53.3333V37.5H57.5C58.163 37.5 58.7989 37.7634 59.2678 38.2322C59.7366 38.7011 60 39.337 60 40C60 40.663 59.7366 41.2989 59.2678 41.7678C58.7989 42.2366 58.163 42.5 57.5 42.5H53.3333V44.1667C53.3333 46.5978 52.3676 48.9294 50.6485 50.6485C48.9294 52.3676 46.5978 53.3333 44.1667 53.3333H42.5V57.5C42.5 58.163 42.2366 58.7989 41.7678 59.2678C41.2989 59.7366 40.663 60 40 60C39.337 60 38.7011 59.7366 38.2322 59.2678C37.7634 58.7989 37.5 58.163 37.5 57.5V53.3333H32.5V57.5C32.5 58.163 32.2366 58.7989 31.7678 59.2678C31.2989 59.7366 30.663 60 30 60C29.337 60 28.7011 59.7366 28.2322 59.2678C27.7634 58.7989 27.5 58.163 27.5 57.5V53.3333H22.5V57.5C22.5 58.163 22.2366 58.7989 21.7678 59.2678C21.2989 59.7366 20.663 60 20 60C19.337 60 18.7011 59.7366 18.2322 59.2678C17.7634 58.7989 17.5 58.163 17.5 57.5V53.3333H15.8333C13.4022 53.3333 11.0706 52.3676 9.35152 50.6485C7.63244 48.9294 6.66667 46.5978 6.66667 44.1667V42.5H2.5C1.83696 42.5 1.20107 42.2366 0.732233 41.7678C0.263392 41.2989 0 40.663 0 40C0 39.337 0.263392 38.7011 0.732233 38.2322C1.20107 37.7634 1.83696 37.5 2.5 37.5H6.66667V32.5H2.5C1.83696 32.5 1.20107 32.2366 0.732233 31.7678C0.263392 31.2989 0 30.663 0 30C0 29.337 0.263392 28.7011 0.732233 28.2322C1.20107 27.7634 1.83696 27.5 2.5 27.5H6.66667V22.5H2.5C1.83696 22.5 1.20107 22.2366 0.732233 21.7678C0.263392 21.2989 0 20.663 0 20C0 19.337 0.263392 18.7011 0.732233 18.2322C1.20107 17.7634 1.83696 17.5 2.5 17.5H6.66667V15.8333C6.66667 13.4022 7.63244 11.0706 9.35152 9.35152C11.0706 7.63244 13.4022 6.66667 15.8333 6.66667H17.5V2.5C17.5 1.83696 17.7634 1.20107 18.2322 0.732233C18.7011 0.263392 19.337 0 20 0C20.663 0 21.2989 0.263392 21.7678 0.732233C22.2366 1.20107 22.5 1.83696 22.5 2.5V6.66667H27.5ZM11.6667 15.8333C11.6667 13.5333 13.5333 11.6667 15.8333 11.6667H44.1667C46.4667 11.6667 48.3333 13.5333 48.3333 15.8333V44.1667C48.3333 46.4667 46.4667 48.3333 44.1667 48.3333H15.8333C13.5333 48.3333 11.6667 46.4667 11.6667 44.1667V15.8333Z" fill="#2F414F"/>
<path d="M128.795 25.9091C128.699 24.9375 128.27 24.1648 127.509 23.5909C126.747 23.017 125.79 22.7301 124.636 22.7301C123.824 22.7301 123.108 22.8693 122.489 23.1477C121.875 23.4261 121.392 23.8125 121.04 24.3068C120.693 24.7955 120.52 25.3523 120.52 25.9773C120.52 26.4375 120.619 26.8409 120.818 27.1875C121.017 27.5341 121.284 27.8324 121.619 28.0824C121.96 28.3267 122.335 28.5369 122.744 28.7131C123.159 28.8892 123.577 29.0369 123.997 29.1562L125.838 29.6847C126.395 29.8381 126.952 30.0341 127.509 30.2727C128.065 30.5114 128.574 30.8125 129.034 31.1761C129.5 31.5341 129.872 31.9744 130.151 32.4972C130.435 33.0142 130.577 33.6364 130.577 34.3636C130.577 35.2955 130.335 36.1335 129.852 36.8778C129.369 37.6222 128.676 38.2131 127.773 38.6506C126.869 39.0824 125.787 39.2983 124.526 39.2983C123.338 39.2983 122.307 39.1023 121.432 38.7102C120.557 38.3125 119.869 37.7642 119.369 37.0653C118.869 36.3665 118.588 35.5568 118.526 34.6364H120.162C120.219 35.3239 120.446 35.9062 120.844 36.3835C121.241 36.8608 121.759 37.2244 122.395 37.4744C123.031 37.7187 123.741 37.8409 124.526 37.8409C125.395 37.8409 126.168 37.696 126.844 37.4062C127.526 37.1108 128.06 36.7017 128.446 36.179C128.838 35.6506 129.034 35.0369 129.034 34.3381C129.034 33.7472 128.881 33.2528 128.574 32.8551C128.267 32.4517 127.838 32.1136 127.287 31.8409C126.741 31.5682 126.108 31.3267 125.386 31.1165L123.298 30.5028C121.929 30.0937 120.866 29.5284 120.111 28.8068C119.355 28.0852 118.977 27.1648 118.977 26.0455C118.977 25.108 119.227 24.2841 119.727 23.5739C120.233 22.858 120.915 22.3011 121.773 21.9034C122.636 21.5 123.605 21.2983 124.679 21.2983C125.764 21.2983 126.724 21.4972 127.56 21.8949C128.395 22.2926 129.057 22.8409 129.545 23.5398C130.04 24.233 130.304 25.0227 130.338 25.9091H128.795ZM134.412 21.5455H136.253L142.585 36.75H142.739L149.071 21.5455H150.912V39H149.412V24.9119H149.276L143.386 39H141.938L136.048 24.9119H135.912V39H134.412V21.5455ZM155.578 39H153.908L160.257 21.5455H161.962L168.311 39H166.641L161.169 23.6165H161.05L155.578 39ZM156.78 32.3097H165.439V33.7415H156.78V32.3097ZM171.303 39V21.5455H176.936C178.175 21.5455 179.209 21.7699 180.038 22.2188C180.874 22.6619 181.501 23.2784 181.922 24.0682C182.348 24.8523 182.561 25.7528 182.561 26.7699C182.561 27.7869 182.348 28.6847 181.922 29.4631C181.501 30.2415 180.876 30.8494 180.047 31.2869C179.217 31.7244 178.189 31.9432 176.962 31.9432H172.163V30.4858H176.919C177.828 30.4858 178.584 30.3352 179.186 30.0341C179.794 29.733 180.246 29.304 180.541 28.7472C180.842 28.1903 180.993 27.5312 180.993 26.7699C180.993 26.0085 180.842 25.3437 180.541 24.7756C180.24 24.2017 179.786 23.7585 179.178 23.446C178.575 23.1335 177.814 22.9773 176.893 22.9773H172.896V39H171.303ZM178.999 31.125L183.294 39H181.453L177.2 31.125H178.999ZM185.386 22.9773V21.5455H198.043V22.9773H192.511V39H190.918V22.9773H185.386ZM199.617 39H197.947L204.296 21.5455H206.001L212.35 39H210.68L205.208 23.6165H205.089L199.617 39ZM200.819 32.3097H209.478V33.7415H200.819V32.3097ZM224.819 25.9091C224.722 24.9375 224.293 24.1648 223.532 23.5909C222.771 23.017 221.813 22.7301 220.66 22.7301C219.847 22.7301 219.131 22.8693 218.512 23.1477C217.898 23.4261 217.415 23.8125 217.063 24.3068C216.717 24.7955 216.543 25.3523 216.543 25.9773C216.543 26.4375 216.643 26.8409 216.842 27.1875C217.04 27.5341 217.308 27.8324 217.643 28.0824C217.984 28.3267 218.359 28.5369 218.768 28.7131C219.183 28.8892 219.6 29.0369 220.021 29.1562L221.862 29.6847C222.418 29.8381 222.975 30.0341 223.532 30.2727C224.089 30.5114 224.597 30.8125 225.058 31.1761C225.523 31.5341 225.896 31.9744 226.174 32.4972C226.458 33.0142 226.6 33.6364 226.6 34.3636C226.6 35.2955 226.359 36.1335 225.876 36.8778C225.393 37.6222 224.7 38.2131 223.796 38.6506C222.893 39.0824 221.81 39.2983 220.549 39.2983C219.362 39.2983 218.33 39.1023 217.455 38.7102C216.58 38.3125 215.893 37.7642 215.393 37.0653C214.893 36.3665 214.612 35.5568 214.549 34.6364H216.185C216.242 35.3239 216.469 35.9062 216.867 36.3835C217.265 36.8608 217.782 37.2244 218.418 37.4744C219.055 37.7187 219.765 37.8409 220.549 37.8409C221.418 37.8409 222.191 37.696 222.867 37.4062C223.549 37.1108 224.083 36.7017 224.469 36.179C224.862 35.6506 225.058 35.0369 225.058 34.3381C225.058 33.7472 224.904 33.2528 224.597 32.8551C224.29 32.4517 223.862 32.1136 223.31 31.8409C222.765 31.5682 222.131 31.3267 221.41 31.1165L219.322 30.5028C217.952 30.0937 216.89 29.5284 216.134 28.8068C215.379 28.0852 215.001 27.1648 215.001 26.0455C215.001 25.108 215.251 24.2841 215.751 23.5739C216.256 22.858 216.938 22.3011 217.796 21.9034C218.66 21.5 219.629 21.2983 220.702 21.2983C221.788 21.2983 222.748 21.4972 223.583 21.8949C224.418 22.2926 225.08 22.8409 225.569 23.5398C226.063 24.233 226.327 25.0227 226.362 25.9091H224.819ZM239.913 25.9091C239.816 24.9375 239.387 24.1648 238.626 23.5909C237.864 23.017 236.907 22.7301 235.754 22.7301C234.941 22.7301 234.225 22.8693 233.606 23.1477C232.992 23.4261 232.509 23.8125 232.157 24.3068C231.81 24.7955 231.637 25.3523 231.637 25.9773C231.637 26.4375 231.737 26.8409 231.935 27.1875C232.134 27.5341 232.401 27.8324 232.737 28.0824C233.077 28.3267 233.452 28.5369 233.862 28.7131C234.276 28.8892 234.694 29.0369 235.114 29.1562L236.955 29.6847C237.512 29.8381 238.069 30.0341 238.626 30.2727C239.183 30.5114 239.691 30.8125 240.151 31.1761C240.617 31.5341 240.989 31.9744 241.268 32.4972C241.552 33.0142 241.694 33.6364 241.694 34.3636C241.694 35.2955 241.452 36.1335 240.969 36.8778C240.487 37.6222 239.793 38.2131 238.89 38.6506C237.987 39.0824 236.904 39.2983 235.643 39.2983C234.455 39.2983 233.424 39.1023 232.549 38.7102C231.674 38.3125 230.987 37.7642 230.487 37.0653C229.987 36.3665 229.705 35.5568 229.643 34.6364H231.279C231.336 35.3239 231.563 35.9062 231.961 36.3835C232.359 36.8608 232.876 37.2244 233.512 37.4744C234.148 37.7187 234.859 37.8409 235.643 37.8409C236.512 37.8409 237.285 37.696 237.961 37.4062C238.643 37.1108 239.177 36.7017 239.563 36.179C239.955 35.6506 240.151 35.0369 240.151 34.3381C240.151 33.7472 239.998 33.2528 239.691 32.8551C239.384 32.4517 238.955 32.1136 238.404 31.8409C237.859 31.5682 237.225 31.3267 236.504 31.1165L234.415 30.5028C233.046 30.0937 231.984 29.5284 231.228 28.8068C230.472 28.0852 230.094 27.1648 230.094 26.0455C230.094 25.108 230.344 24.2841 230.844 23.5739C231.35 22.858 232.032 22.3011 232.89 21.9034C233.754 21.5 234.722 21.2983 235.796 21.2983C236.881 21.2983 237.842 21.4972 238.677 21.8949C239.512 22.2926 240.174 22.8409 240.663 23.5398C241.157 24.233 241.421 25.0227 241.455 25.9091H239.913ZM247.123 21.5455V39H245.529V21.5455H247.123ZM261.241 25.9091C261.144 24.9375 260.715 24.1648 259.954 23.5909C259.192 23.017 258.235 22.7301 257.082 22.7301C256.269 22.7301 255.553 22.8693 254.934 23.1477C254.32 23.4261 253.837 23.8125 253.485 24.3068C253.138 24.7955 252.965 25.3523 252.965 25.9773C252.965 26.4375 253.065 26.8409 253.263 27.1875C253.462 27.5341 253.729 27.8324 254.065 28.0824C254.406 28.3267 254.781 28.5369 255.19 28.7131C255.604 28.8892 256.022 29.0369 256.442 29.1562L258.283 29.6847C258.84 29.8381 259.397 30.0341 259.954 30.2727C260.511 30.5114 261.019 30.8125 261.479 31.1761C261.945 31.5341 262.317 31.9744 262.596 32.4972C262.88 33.0142 263.022 33.6364 263.022 34.3636C263.022 35.2955 262.781 36.1335 262.298 36.8778C261.815 37.6222 261.121 38.2131 260.218 38.6506C259.315 39.0824 258.232 39.2983 256.971 39.2983C255.783 39.2983 254.752 39.1023 253.877 38.7102C253.002 38.3125 252.315 37.7642 251.815 37.0653C251.315 36.3665 251.033 35.5568 250.971 34.6364H252.607C252.664 35.3239 252.891 35.9062 253.289 36.3835C253.687 36.8608 254.204 37.2244 254.84 37.4744C255.477 37.7187 256.187 37.8409 256.971 37.8409C257.84 37.8409 258.613 37.696 259.289 37.4062C259.971 37.1108 260.505 36.7017 260.891 36.179C261.283 35.6506 261.479 35.0369 261.479 34.3381C261.479 33.7472 261.326 33.2528 261.019 32.8551C260.712 32.4517 260.283 32.1136 259.732 31.8409C259.187 31.5682 258.553 31.3267 257.832 31.1165L255.744 30.5028C254.374 30.0937 253.312 29.5284 252.556 28.8068C251.8 28.0852 251.423 27.1648 251.423 26.0455C251.423 25.108 251.673 24.2841 252.173 23.5739C252.678 22.858 253.36 22.3011 254.218 21.9034C255.082 21.5 256.05 21.2983 257.124 21.2983C258.21 21.2983 259.17 21.4972 260.005 21.8949C260.84 22.2926 261.502 22.8409 261.991 23.5398C262.485 24.233 262.749 25.0227 262.783 25.9091H261.241ZM265.8 22.9773V21.5455H278.457V22.9773H272.925V39H271.332V22.9773H265.8ZM280.031 39H278.361L284.71 21.5455H286.415L292.764 39H291.094L285.622 23.6165H285.503L280.031 39ZM281.233 32.3097H289.892V33.7415H281.233V32.3097ZM309.349 21.5455V39H307.798L297.486 24.3835H297.349V39H295.756V21.5455H297.298L307.645 36.179H307.781V21.5455H309.349ZM312.933 22.9773V21.5455H325.589V22.9773H320.058V39H318.464V22.9773H312.933Z" fill="black"/>
<path d="M69.5803 39V20.8182H81.8317V23.9876H73.4244V28.32H81.2013V31.4893H73.4244V35.8306H81.8672V39H69.5803ZM94.7512 26.0472C94.6801 25.3311 94.3753 24.7747 93.8367 24.3782C93.2981 23.9817 92.5672 23.7834 91.6439 23.7834C91.0165 23.7834 90.4868 23.8722 90.0548 24.0497C89.6227 24.2214 89.2913 24.4611 89.0605 24.7688C88.8356 25.0766 88.7231 25.4258 88.7231 25.8164C88.7113 26.1419 88.7793 26.426 88.9273 26.6687C89.0812 26.9113 89.2913 27.1214 89.5576 27.299C89.824 27.4706 90.1317 27.6216 90.4809 27.7518C90.8301 27.8761 91.203 27.9826 91.5995 28.0714L93.233 28.462C94.0261 28.6396 94.7541 28.8763 95.417 29.1722C96.0799 29.4682 96.654 29.8321 97.1393 30.2642C97.6246 30.6963 98.0004 31.2053 98.2668 31.7912C98.539 32.3771 98.6781 33.0489 98.684 33.8065C98.6781 34.9192 98.394 35.8839 97.8318 36.7006C97.2754 37.5115 96.4705 38.1418 95.417 38.5916C94.3694 39.0355 93.1058 39.2575 91.6262 39.2575C90.1584 39.2575 88.8799 39.0326 87.7909 38.5827C86.7078 38.1329 85.8615 37.4671 85.2519 36.5852C84.6482 35.6974 84.3315 34.5996 84.3019 33.2915H88.0218C88.0632 33.9012 88.2378 34.4102 88.5455 34.8185C88.8592 35.221 89.2765 35.5258 89.7973 35.733C90.3241 35.9342 90.9189 36.0348 91.5818 36.0348C92.2328 36.0348 92.798 35.9401 93.2774 35.7507C93.7628 35.5613 94.1386 35.2979 94.4049 34.9606C94.6713 34.6232 94.8044 34.2356 94.8044 33.7976C94.8044 33.3892 94.6831 33.0459 94.4404 32.7678C94.2037 32.4896 93.8545 32.2528 93.3928 32.0575C92.9371 31.8622 92.3778 31.6847 91.7149 31.5249L89.7352 31.0277C88.2023 30.6548 86.9919 30.0719 86.1041 29.2788C85.2164 28.4857 84.7754 27.4174 84.7813 26.0739C84.7754 24.973 85.0684 24.0112 85.6602 23.1886C86.258 22.3659 87.0777 21.7237 88.1194 21.2621C89.1611 20.8004 90.3448 20.5696 91.6705 20.5696C93.02 20.5696 94.1978 20.8004 95.2039 21.2621C96.216 21.7237 97.0032 22.3659 97.5654 23.1886C98.1277 24.0112 98.4177 24.9641 98.4355 26.0472H94.7512ZM101.27 39V20.8182H108.443C109.822 20.8182 110.997 21.0816 111.968 21.6083C112.938 22.1291 113.678 22.8542 114.187 23.7834C114.702 24.7067 114.959 25.772 114.959 26.9794C114.959 28.1868 114.699 29.2521 114.178 30.1754C113.657 31.0987 112.903 31.8178 111.914 32.3327C110.932 32.8477 109.742 33.1051 108.345 33.1051H103.773V30.0245H107.724C108.464 30.0245 109.073 29.8973 109.553 29.6428C110.038 29.3823 110.399 29.0243 110.636 28.5685C110.878 28.1069 111 27.5772 111 26.9794C111 26.3757 110.878 25.849 110.636 25.3991C110.399 24.9434 110.038 24.5913 109.553 24.3427C109.067 24.0882 108.452 23.9609 107.706 23.9609H105.114V39H101.27Z" fill="black"/>
</svg>
